<mxfile host="app.diagrams.net" agent="Mozilla/5.0 (Windows NT 10.0; Win64; x64) AppleWebKit/537.36 (KHTML, like Gecko) Chrome/131.0.0.0 Safari/537.36" version="26.0.6" pages="3">
  <diagram name="Model Train BPMN" id="61Uq8p4fcnda3VYvf00w">
    <mxGraphModel dx="1221" dy="725" grid="1" gridSize="10" guides="1" tooltips="1" connect="1" arrows="1" fold="1" page="1" pageScale="1" pageWidth="827" pageHeight="1169" math="0" shadow="0">
      <root>
        <mxCell id="0" />
        <mxCell id="1" parent="0" />
        <mxCell id="k9S8Vdy3el8oYQb8zNsB-2" value="Initialize Model, Optimizer, and Loss Function" style="rounded=1;whiteSpace=wrap;html=1;" vertex="1" parent="1">
          <mxGeometry x="160" y="160" width="200" height="60" as="geometry" />
        </mxCell>
        <mxCell id="e9yR7lh01j_a-51SrfE_-4" value="" style="edgeStyle=orthogonalEdgeStyle;rounded=0;orthogonalLoop=1;jettySize=auto;html=1;" edge="1" parent="1" source="k9S8Vdy3el8oYQb8zNsB-3" target="e9yR7lh01j_a-51SrfE_-3">
          <mxGeometry relative="1" as="geometry" />
        </mxCell>
        <mxCell id="k9S8Vdy3el8oYQb8zNsB-3" value="Preprocess Data&amp;nbsp;" style="rounded=1;whiteSpace=wrap;html=1;" vertex="1" parent="1">
          <mxGeometry x="400" y="160" width="120" height="60" as="geometry" />
        </mxCell>
        <mxCell id="k9S8Vdy3el8oYQb8zNsB-4" value="Train&amp;nbsp; Model" style="rounded=1;whiteSpace=wrap;html=1;" vertex="1" parent="1">
          <mxGeometry x="870" y="20" width="170" height="60" as="geometry" />
        </mxCell>
        <mxCell id="k9S8Vdy3el8oYQb8zNsB-5" value="Save Best-Performing Model" style="rounded=1;whiteSpace=wrap;html=1;" vertex="1" parent="1">
          <mxGeometry x="1200" y="160" width="200" height="60" as="geometry" />
        </mxCell>
        <mxCell id="k9S8Vdy3el8oYQb8zNsB-7" style="edgeStyle=orthogonalEdgeStyle;rounded=0;orthogonalLoop=1;jettySize=auto;html=1;" edge="1" parent="1" target="k9S8Vdy3el8oYQb8zNsB-2">
          <mxGeometry relative="1" as="geometry">
            <mxPoint x="120" y="190" as="sourcePoint" />
          </mxGeometry>
        </mxCell>
        <mxCell id="k9S8Vdy3el8oYQb8zNsB-8" style="edgeStyle=orthogonalEdgeStyle;rounded=0;orthogonalLoop=1;jettySize=auto;html=1;" edge="1" parent="1" source="k9S8Vdy3el8oYQb8zNsB-2" target="k9S8Vdy3el8oYQb8zNsB-3">
          <mxGeometry relative="1" as="geometry" />
        </mxCell>
        <mxCell id="k9S8Vdy3el8oYQb8zNsB-11" style="edgeStyle=orthogonalEdgeStyle;rounded=0;orthogonalLoop=1;jettySize=auto;html=1;" edge="1" parent="1" source="k9S8Vdy3el8oYQb8zNsB-5">
          <mxGeometry relative="1" as="geometry">
            <mxPoint x="1440" y="190" as="targetPoint" />
          </mxGeometry>
        </mxCell>
        <mxCell id="e9yR7lh01j_a-51SrfE_-1" value="" style="points=[[0.145,0.145,0],[0.5,0,0],[0.855,0.145,0],[1,0.5,0],[0.855,0.855,0],[0.5,1,0],[0.145,0.855,0],[0,0.5,0]];shape=mxgraph.bpmn.event;html=1;verticalLabelPosition=bottom;labelBackgroundColor=#ffffff;verticalAlign=top;align=center;perimeter=ellipsePerimeter;outlineConnect=0;aspect=fixed;outline=standard;symbol=general;" vertex="1" parent="1">
          <mxGeometry x="70" y="165" width="50" height="50" as="geometry" />
        </mxCell>
        <mxCell id="e9yR7lh01j_a-51SrfE_-2" value="" style="points=[[0.145,0.145,0],[0.5,0,0],[0.855,0.145,0],[1,0.5,0],[0.855,0.855,0],[0.5,1,0],[0.145,0.855,0],[0,0.5,0]];shape=mxgraph.bpmn.event;html=1;verticalLabelPosition=bottom;labelBackgroundColor=#ffffff;verticalAlign=top;align=center;perimeter=ellipsePerimeter;outlineConnect=0;aspect=fixed;outline=end;symbol=terminate2;" vertex="1" parent="1">
          <mxGeometry x="1440" y="165" width="50" height="50" as="geometry" />
        </mxCell>
        <mxCell id="e9yR7lh01j_a-51SrfE_-6" value="" style="edgeStyle=orthogonalEdgeStyle;rounded=0;orthogonalLoop=1;jettySize=auto;html=1;" edge="1" parent="1" source="e9yR7lh01j_a-51SrfE_-3" target="e9yR7lh01j_a-51SrfE_-5">
          <mxGeometry relative="1" as="geometry" />
        </mxCell>
        <mxCell id="e9yR7lh01j_a-51SrfE_-3" value="&amp;nbsp;Load Datasets" style="rounded=1;whiteSpace=wrap;html=1;" vertex="1" parent="1">
          <mxGeometry x="580" y="160" width="130" height="60" as="geometry" />
        </mxCell>
        <mxCell id="e9yR7lh01j_a-51SrfE_-9" style="edgeStyle=orthogonalEdgeStyle;rounded=0;orthogonalLoop=1;jettySize=auto;html=1;entryX=0;entryY=0.5;entryDx=0;entryDy=0;exitX=0.5;exitY=0;exitDx=0;exitDy=0;exitPerimeter=0;" edge="1" parent="1" source="e9yR7lh01j_a-51SrfE_-5" target="k9S8Vdy3el8oYQb8zNsB-4">
          <mxGeometry relative="1" as="geometry" />
        </mxCell>
        <mxCell id="e9yR7lh01j_a-51SrfE_-10" style="edgeStyle=orthogonalEdgeStyle;rounded=0;orthogonalLoop=1;jettySize=auto;html=1;entryX=0;entryY=0.5;entryDx=0;entryDy=0;exitX=0.5;exitY=1;exitDx=0;exitDy=0;exitPerimeter=0;" edge="1" parent="1" source="e9yR7lh01j_a-51SrfE_-5" target="e9yR7lh01j_a-51SrfE_-8">
          <mxGeometry relative="1" as="geometry" />
        </mxCell>
        <mxCell id="e9yR7lh01j_a-51SrfE_-5" value="" style="points=[[0.25,0.25,0],[0.5,0,0],[0.75,0.25,0],[1,0.5,0],[0.75,0.75,0],[0.5,1,0],[0.25,0.75,0],[0,0.5,0]];shape=mxgraph.bpmn.gateway2;html=1;verticalLabelPosition=bottom;labelBackgroundColor=#ffffff;verticalAlign=top;align=center;perimeter=rhombusPerimeter;outlineConnect=0;outline=none;symbol=none;gwType=parallel;" vertex="1" parent="1">
          <mxGeometry x="777" y="165" width="50" height="50" as="geometry" />
        </mxCell>
        <mxCell id="e9yR7lh01j_a-51SrfE_-8" value="&amp;nbsp;Validate Model" style="rounded=1;whiteSpace=wrap;html=1;" vertex="1" parent="1">
          <mxGeometry x="870" y="300" width="170" height="60" as="geometry" />
        </mxCell>
        <mxCell id="e9yR7lh01j_a-51SrfE_-12" value="" style="edgeStyle=orthogonalEdgeStyle;rounded=0;orthogonalLoop=1;jettySize=auto;html=1;" edge="1" parent="1" source="e9yR7lh01j_a-51SrfE_-11" target="k9S8Vdy3el8oYQb8zNsB-5">
          <mxGeometry relative="1" as="geometry" />
        </mxCell>
        <mxCell id="e9yR7lh01j_a-51SrfE_-11" value="" style="points=[[0.25,0.25,0],[0.5,0,0],[0.75,0.25,0],[1,0.5,0],[0.75,0.75,0],[0.5,1,0],[0.25,0.75,0],[0,0.5,0]];shape=mxgraph.bpmn.gateway2;html=1;verticalLabelPosition=bottom;labelBackgroundColor=#ffffff;verticalAlign=top;align=center;perimeter=rhombusPerimeter;outlineConnect=0;outline=none;symbol=none;gwType=parallel;" vertex="1" parent="1">
          <mxGeometry x="1100" y="165" width="50" height="50" as="geometry" />
        </mxCell>
        <mxCell id="e9yR7lh01j_a-51SrfE_-14" style="edgeStyle=orthogonalEdgeStyle;rounded=0;orthogonalLoop=1;jettySize=auto;html=1;entryX=0.5;entryY=0;entryDx=0;entryDy=0;entryPerimeter=0;" edge="1" parent="1" source="k9S8Vdy3el8oYQb8zNsB-4" target="e9yR7lh01j_a-51SrfE_-11">
          <mxGeometry relative="1" as="geometry" />
        </mxCell>
        <mxCell id="e9yR7lh01j_a-51SrfE_-15" style="edgeStyle=orthogonalEdgeStyle;rounded=0;orthogonalLoop=1;jettySize=auto;html=1;entryX=0.5;entryY=1;entryDx=0;entryDy=0;entryPerimeter=0;" edge="1" parent="1" source="e9yR7lh01j_a-51SrfE_-8" target="e9yR7lh01j_a-51SrfE_-11">
          <mxGeometry relative="1" as="geometry" />
        </mxCell>
      </root>
    </mxGraphModel>
  </diagram>
  <diagram name="Model Test BPMN" id="TKBVbPSVPEo3wo5Xgi3F">
    <mxGraphModel dx="1221" dy="725" grid="1" gridSize="10" guides="1" tooltips="1" connect="1" arrows="1" fold="1" page="1" pageScale="1" pageWidth="827" pageHeight="1169" math="0" shadow="0">
      <root>
        <mxCell id="0" />
        <mxCell id="1" parent="0" />
        <mxCell id="initializeModel" value="Initialize Model&amp;nbsp;" style="rounded=1;whiteSpace=wrap;html=1;" parent="1" vertex="1">
          <mxGeometry x="250" y="30" width="136" height="60" as="geometry" />
        </mxCell>
        <mxCell id="EopREOiNvW3aTUHjegUm-13" value="" style="edgeStyle=orthogonalEdgeStyle;rounded=0;orthogonalLoop=1;jettySize=auto;html=1;" edge="1" parent="1" source="preprocess" target="EopREOiNvW3aTUHjegUm-12">
          <mxGeometry relative="1" as="geometry" />
        </mxCell>
        <mxCell id="preprocess" value="Preprocess Test Dataset" style="rounded=1;whiteSpace=wrap;html=1;" parent="1" vertex="1">
          <mxGeometry x="570" y="135" width="200" height="60" as="geometry" />
        </mxCell>
        <mxCell id="test" value="Test Model&amp;nbsp;" style="rounded=1;whiteSpace=wrap;html=1;" parent="1" vertex="1">
          <mxGeometry x="930" y="30" width="120" height="60" as="geometry" />
        </mxCell>
        <mxCell id="EopREOiNvW3aTUHjegUm-5" value="" style="edgeStyle=orthogonalEdgeStyle;rounded=0;orthogonalLoop=1;jettySize=auto;html=1;" edge="1" parent="1" source="EopREOiNvW3aTUHjegUm-1" target="EopREOiNvW3aTUHjegUm-4">
          <mxGeometry relative="1" as="geometry" />
        </mxCell>
        <mxCell id="EopREOiNvW3aTUHjegUm-1" value="" style="points=[[0.145,0.145,0],[0.5,0,0],[0.855,0.145,0],[1,0.5,0],[0.855,0.855,0],[0.5,1,0],[0.145,0.855,0],[0,0.5,0]];shape=mxgraph.bpmn.event;html=1;verticalLabelPosition=bottom;labelBackgroundColor=#ffffff;verticalAlign=top;align=center;perimeter=ellipsePerimeter;outlineConnect=0;aspect=fixed;outline=standard;symbol=general;" vertex="1" parent="1">
          <mxGeometry x="50" y="140" width="50" height="50" as="geometry" />
        </mxCell>
        <mxCell id="EopREOiNvW3aTUHjegUm-2" value="" style="points=[[0.145,0.145,0],[0.5,0,0],[0.855,0.145,0],[1,0.5,0],[0.855,0.855,0],[0.5,1,0],[0.145,0.855,0],[0,0.5,0]];shape=mxgraph.bpmn.event;html=1;verticalLabelPosition=bottom;labelBackgroundColor=#ffffff;verticalAlign=top;align=center;perimeter=ellipsePerimeter;outlineConnect=0;aspect=fixed;outline=end;symbol=terminate2;" vertex="1" parent="1">
          <mxGeometry x="1230" y="160" width="50" height="50" as="geometry" />
        </mxCell>
        <mxCell id="EopREOiNvW3aTUHjegUm-3" value="Load Weights" style="rounded=1;whiteSpace=wrap;html=1;" vertex="1" parent="1">
          <mxGeometry x="250" y="250" width="136" height="60" as="geometry" />
        </mxCell>
        <mxCell id="EopREOiNvW3aTUHjegUm-6" style="edgeStyle=orthogonalEdgeStyle;rounded=0;orthogonalLoop=1;jettySize=auto;html=1;entryX=0;entryY=0.5;entryDx=0;entryDy=0;exitX=0.5;exitY=0;exitDx=0;exitDy=0;exitPerimeter=0;" edge="1" parent="1" source="EopREOiNvW3aTUHjegUm-4" target="initializeModel">
          <mxGeometry relative="1" as="geometry" />
        </mxCell>
        <mxCell id="EopREOiNvW3aTUHjegUm-7" style="edgeStyle=orthogonalEdgeStyle;rounded=0;orthogonalLoop=1;jettySize=auto;html=1;entryX=0;entryY=0.5;entryDx=0;entryDy=0;exitX=0.5;exitY=1;exitDx=0;exitDy=0;exitPerimeter=0;" edge="1" parent="1" source="EopREOiNvW3aTUHjegUm-4" target="EopREOiNvW3aTUHjegUm-3">
          <mxGeometry relative="1" as="geometry" />
        </mxCell>
        <mxCell id="EopREOiNvW3aTUHjegUm-4" value="" style="points=[[0.25,0.25,0],[0.5,0,0],[0.75,0.25,0],[1,0.5,0],[0.75,0.75,0],[0.5,1,0],[0.25,0.75,0],[0,0.5,0]];shape=mxgraph.bpmn.gateway2;html=1;verticalLabelPosition=bottom;labelBackgroundColor=#ffffff;verticalAlign=top;align=center;perimeter=rhombusPerimeter;outlineConnect=0;outline=none;symbol=none;gwType=parallel;" vertex="1" parent="1">
          <mxGeometry x="140" y="140" width="50" height="50" as="geometry" />
        </mxCell>
        <mxCell id="EopREOiNvW3aTUHjegUm-11" value="" style="edgeStyle=orthogonalEdgeStyle;rounded=0;orthogonalLoop=1;jettySize=auto;html=1;" edge="1" parent="1" source="EopREOiNvW3aTUHjegUm-8" target="preprocess">
          <mxGeometry relative="1" as="geometry" />
        </mxCell>
        <mxCell id="EopREOiNvW3aTUHjegUm-8" value="" style="points=[[0.25,0.25,0],[0.5,0,0],[0.75,0.25,0],[1,0.5,0],[0.75,0.75,0],[0.5,1,0],[0.25,0.75,0],[0,0.5,0]];shape=mxgraph.bpmn.gateway2;html=1;verticalLabelPosition=bottom;labelBackgroundColor=#ffffff;verticalAlign=top;align=center;perimeter=rhombusPerimeter;outlineConnect=0;outline=none;symbol=none;gwType=parallel;" vertex="1" parent="1">
          <mxGeometry x="480" y="140" width="50" height="50" as="geometry" />
        </mxCell>
        <mxCell id="EopREOiNvW3aTUHjegUm-9" style="edgeStyle=orthogonalEdgeStyle;rounded=0;orthogonalLoop=1;jettySize=auto;html=1;entryX=0.5;entryY=0;entryDx=0;entryDy=0;entryPerimeter=0;" edge="1" parent="1" source="initializeModel" target="EopREOiNvW3aTUHjegUm-8">
          <mxGeometry relative="1" as="geometry" />
        </mxCell>
        <mxCell id="EopREOiNvW3aTUHjegUm-10" style="edgeStyle=orthogonalEdgeStyle;rounded=0;orthogonalLoop=1;jettySize=auto;html=1;entryX=0.5;entryY=1;entryDx=0;entryDy=0;entryPerimeter=0;" edge="1" parent="1" source="EopREOiNvW3aTUHjegUm-3" target="EopREOiNvW3aTUHjegUm-8">
          <mxGeometry relative="1" as="geometry" />
        </mxCell>
        <mxCell id="EopREOiNvW3aTUHjegUm-15" style="edgeStyle=orthogonalEdgeStyle;rounded=0;orthogonalLoop=1;jettySize=auto;html=1;entryX=0;entryY=0.5;entryDx=0;entryDy=0;exitX=0.5;exitY=0;exitDx=0;exitDy=0;exitPerimeter=0;" edge="1" parent="1" source="EopREOiNvW3aTUHjegUm-12" target="test">
          <mxGeometry relative="1" as="geometry" />
        </mxCell>
        <mxCell id="EopREOiNvW3aTUHjegUm-16" style="edgeStyle=orthogonalEdgeStyle;rounded=0;orthogonalLoop=1;jettySize=auto;html=1;entryX=0;entryY=0.5;entryDx=0;entryDy=0;exitX=0.5;exitY=1;exitDx=0;exitDy=0;exitPerimeter=0;" edge="1" parent="1" source="EopREOiNvW3aTUHjegUm-12" target="EopREOiNvW3aTUHjegUm-14">
          <mxGeometry relative="1" as="geometry" />
        </mxCell>
        <mxCell id="EopREOiNvW3aTUHjegUm-12" value="" style="points=[[0.25,0.25,0],[0.5,0,0],[0.75,0.25,0],[1,0.5,0],[0.75,0.75,0],[0.5,1,0],[0.25,0.75,0],[0,0.5,0]];shape=mxgraph.bpmn.gateway2;html=1;verticalLabelPosition=bottom;labelBackgroundColor=#ffffff;verticalAlign=top;align=center;perimeter=rhombusPerimeter;outlineConnect=0;outline=none;symbol=none;gwType=parallel;" vertex="1" parent="1">
          <mxGeometry x="820" y="140" width="50" height="50" as="geometry" />
        </mxCell>
        <mxCell id="EopREOiNvW3aTUHjegUm-14" value="Calculate Accuracy" style="rounded=1;whiteSpace=wrap;html=1;" vertex="1" parent="1">
          <mxGeometry x="940" y="250" width="120" height="60" as="geometry" />
        </mxCell>
        <mxCell id="EopREOiNvW3aTUHjegUm-20" value="" style="edgeStyle=orthogonalEdgeStyle;rounded=0;orthogonalLoop=1;jettySize=auto;html=1;" edge="1" parent="1" source="EopREOiNvW3aTUHjegUm-17" target="EopREOiNvW3aTUHjegUm-2">
          <mxGeometry relative="1" as="geometry" />
        </mxCell>
        <mxCell id="EopREOiNvW3aTUHjegUm-17" value="" style="points=[[0.25,0.25,0],[0.5,0,0],[0.75,0.25,0],[1,0.5,0],[0.75,0.75,0],[0.5,1,0],[0.25,0.75,0],[0,0.5,0]];shape=mxgraph.bpmn.gateway2;html=1;verticalLabelPosition=bottom;labelBackgroundColor=#ffffff;verticalAlign=top;align=center;perimeter=rhombusPerimeter;outlineConnect=0;outline=none;symbol=none;gwType=parallel;" vertex="1" parent="1">
          <mxGeometry x="1120" y="160" width="50" height="50" as="geometry" />
        </mxCell>
        <mxCell id="EopREOiNvW3aTUHjegUm-18" style="edgeStyle=orthogonalEdgeStyle;rounded=0;orthogonalLoop=1;jettySize=auto;html=1;entryX=0.5;entryY=0;entryDx=0;entryDy=0;entryPerimeter=0;" edge="1" parent="1" source="test" target="EopREOiNvW3aTUHjegUm-17">
          <mxGeometry relative="1" as="geometry" />
        </mxCell>
        <mxCell id="EopREOiNvW3aTUHjegUm-19" style="edgeStyle=orthogonalEdgeStyle;rounded=0;orthogonalLoop=1;jettySize=auto;html=1;entryX=0.5;entryY=1;entryDx=0;entryDy=0;entryPerimeter=0;" edge="1" parent="1" source="EopREOiNvW3aTUHjegUm-14" target="EopREOiNvW3aTUHjegUm-17">
          <mxGeometry relative="1" as="geometry" />
        </mxCell>
      </root>
    </mxGraphModel>
  </diagram>
  <diagram name="Prediction BPMN" id="Zs8ZLUELYWdITNjrFqcN">
    <mxGraphModel dx="1221" dy="725" grid="1" gridSize="10" guides="1" tooltips="1" connect="1" arrows="1" fold="1" page="1" pageScale="1" pageWidth="827" pageHeight="1169" math="0" shadow="0">
      <root>
        <mxCell id="0" />
        <mxCell id="1" parent="0" />
        <mxCell id="preprocess" value="Preprocess Input Image" style="rounded=1;whiteSpace=wrap;html=1;" parent="1" vertex="1">
          <mxGeometry x="220" y="160" width="200" height="60" as="geometry" />
        </mxCell>
        <mxCell id="loadModel" value="Load Trained Model" style="rounded=1;whiteSpace=wrap;html=1;" parent="1" vertex="1">
          <mxGeometry x="460" y="160" width="200" height="60" as="geometry" />
        </mxCell>
        <mxCell id="predict" value="Make Prediction" style="rounded=1;whiteSpace=wrap;html=1;" parent="1" vertex="1">
          <mxGeometry x="460" y="310" width="200" height="60" as="geometry" />
        </mxCell>
        <mxCell id="formatResults" value="Format Prediction Results" style="rounded=1;whiteSpace=wrap;html=1;" parent="1" vertex="1">
          <mxGeometry x="700" y="310" width="200" height="60" as="geometry" />
        </mxCell>
        <mxCell id="flow1" style="edgeStyle=orthogonalEdgeStyle;rounded=0;orthogonalLoop=1;jettySize=auto;html=1;" parent="1" target="preprocess" edge="1">
          <mxGeometry relative="1" as="geometry">
            <mxPoint x="180" y="190" as="sourcePoint" />
          </mxGeometry>
        </mxCell>
        <mxCell id="flow2" style="edgeStyle=orthogonalEdgeStyle;rounded=0;orthogonalLoop=1;jettySize=auto;html=1;" parent="1" source="preprocess" target="loadModel" edge="1">
          <mxGeometry relative="1" as="geometry" />
        </mxCell>
        <mxCell id="flow3" style="edgeStyle=orthogonalEdgeStyle;rounded=0;orthogonalLoop=1;jettySize=auto;html=1;" parent="1" source="loadModel" target="predict" edge="1">
          <mxGeometry relative="1" as="geometry" />
        </mxCell>
        <mxCell id="flow4" style="edgeStyle=orthogonalEdgeStyle;rounded=0;orthogonalLoop=1;jettySize=auto;html=1;" parent="1" source="predict" target="formatResults" edge="1">
          <mxGeometry relative="1" as="geometry" />
        </mxCell>
        <mxCell id="flow5" style="edgeStyle=orthogonalEdgeStyle;rounded=0;orthogonalLoop=1;jettySize=auto;html=1;" parent="1" source="formatResults" edge="1">
          <mxGeometry relative="1" as="geometry">
            <mxPoint x="940" y="340" as="targetPoint" />
          </mxGeometry>
        </mxCell>
        <mxCell id="Nuyb6o9qYK3xWMeJLpWP-1" value="" style="points=[[0.145,0.145,0],[0.5,0,0],[0.855,0.145,0],[1,0.5,0],[0.855,0.855,0],[0.5,1,0],[0.145,0.855,0],[0,0.5,0]];shape=mxgraph.bpmn.event;html=1;verticalLabelPosition=bottom;labelBackgroundColor=#ffffff;verticalAlign=top;align=center;perimeter=ellipsePerimeter;outlineConnect=0;aspect=fixed;outline=standard;symbol=general;" vertex="1" parent="1">
          <mxGeometry x="130" y="165" width="50" height="50" as="geometry" />
        </mxCell>
        <mxCell id="Nuyb6o9qYK3xWMeJLpWP-2" value="" style="points=[[0.145,0.145,0],[0.5,0,0],[0.855,0.145,0],[1,0.5,0],[0.855,0.855,0],[0.5,1,0],[0.145,0.855,0],[0,0.5,0]];shape=mxgraph.bpmn.event;html=1;verticalLabelPosition=bottom;labelBackgroundColor=#ffffff;verticalAlign=top;align=center;perimeter=ellipsePerimeter;outlineConnect=0;aspect=fixed;outline=end;symbol=terminate2;" vertex="1" parent="1">
          <mxGeometry x="940" y="315" width="50" height="50" as="geometry" />
        </mxCell>
      </root>
    </mxGraphModel>
  </diagram>
</mxfile>
